<svg width="15" height="10" viewBox="0 0 15 10" fill="none" xmlns="http://www.w3.org/2000/svg">
<path d="M6.2158 9.27955C6.08453 9.27981 5.95451 9.25416 5.83318 9.20405C5.71186 9.15394 5.60162 9.08036 5.5088 8.98755L1.2668 4.74455C1.17123 4.65237 1.09497 4.54208 1.04248 4.42011C0.989982 4.29814 0.962305 4.16694 0.961058 4.03417C0.959811 3.90139 0.98502 3.76969 1.03521 3.64676C1.08541 3.52383 1.15958 3.41213 1.25341 3.31817C1.34723 3.22421 1.45883 3.14988 1.58169 3.09951C1.70455 3.04915 1.83621 3.02375 1.96899 3.02481C2.10177 3.02587 2.23301 3.05336 2.35505 3.10568C2.47709 3.158 2.58749 3.2341 2.6798 3.32955L6.2148 6.86455L12.5798 0.501546C12.7673 0.313906 13.0217 0.208437 13.2869 0.208344C13.5522 0.20825 13.8067 0.313538 13.9943 0.501046C14.1819 0.688554 14.2874 0.942923 14.2875 1.20819C14.2876 1.47346 14.1823 1.72791 13.9948 1.91555L6.9228 8.98755C6.82998 9.08036 6.71974 9.15394 6.59842 9.20405C6.47709 9.25416 6.34707 9.27981 6.2158 9.27955Z" fill="#2FAB73"/>
</svg>
